<svg height="16" xmlns="http://www.w3.org/2000/svg" viewBox="0 0 16 16">
    <path d="m15.21,10.59l-3.86-1.74c-.22-.1-.48-.03-.62.17l-.88,1.26c-.24.35-.54.41-.76.28-1.51-.9-2.77-2.17-3.66-3.68-.12-.21-.07-.48.13-.63l1.19-.92c.3-.23.36-.46.27-.66l-1.53-3.6c-.21-.48-.45-.6-.68-.55L.9,1.39c-.23.05-.4.26-.4.49.05,7.44,6.26,13.55,13.83,13.62.25,0,.46-.18.5-.42l.66-3.96c.04-.22-.08-.44-.29-.53Z" fill="none" stroke="currentColor" stroke-linecap="round" stroke-width="1" vector-effect="non-scaling-stroke"/>
</svg>