<svg xmlns="http://www.w3.org/2000/svg" viewBox="0 0 19 21" fill="none" stroke="currentColor"><path stroke-linecap="round" stroke-linejoin="round" d="M15.5,20.5c1.66,0,3-1.34,3-3s-1.34-3-3-3-3,1.34-3,3,1.34,3,3,3Z"/><path stroke-linecap="round" stroke-linejoin="round" d="M15.5,6.5c1.66,0,3-1.34,3-3s-1.34-3-3-3-3,1.34-3,3,1.34,3,3,3Z"/><path stroke-linecap="round" stroke-linejoin="round" d="M3.5,13.5c1.66,0,3-1.34,3-3s-1.34-3-3-3-3,1.34-3,3,1.34,3,3,3Z"/><path d="M13,5l-7,4"/><path d="M6,12l7,4"/></svg>